<svg width="360" height="720" viewBox="0 0 360 720" fill="none" xmlns="http://www.w3.org/2000/svg">
<path d="M15.246 428.627L1.96729 432.212V421.458L15.246 416.849V428.627Z" fill="#FBF588"/>
<path d="M343.279 561.773L352.131 570.479V565.358L348.689 559.213L343.279 561.773Z" fill="#FCF2C8"/>
<path d="M10.8198 503.906V511.588L20.6559 497.761V488.543L10.8198 503.906Z" fill="#D49FFD"/>
<path d="M215.902 576.624L197.705 584.818L187.377 568.943H202.131L215.902 576.624Z" fill="#E3F0F8"/>
<path d="M59.9999 597.62L49.672 610.423L37.377 602.229L45.7376 589.427L59.9999 597.62Z" fill="#FBEDFE"/>
<path d="M0 688.262L3.44262 703.625L17.2131 696.455L6.88525 688.262H0Z" fill="#DFF2F8"/>
<path d="M346.721 653.439L337.869 659.072L332.951 642.173L341.803 636.54L346.721 653.439Z" fill="#F1D359"/>
<path d="M299.508 713.867L290.164 719.5L294.098 702.089L304.426 697.48L299.508 713.867Z" fill="#D49FFD"/>
<path d="M315.246 381.514L309.344 398.926L301.476 402.51L307.377 385.099L315.246 381.514Z" fill="#D49FFD"/>
<path d="M320.164 470.62L316.721 472.668L314.754 465.499V460.89L320.164 470.62Z" fill="#FFF981"/>
<path d="M24.5903 397.389L3.9346 391.244L1.47559 364.615L20.6559 378.442L24.5903 397.389Z" fill="#E4F3FA"/>
<path d="M360 335.937L353.607 318.526L345.738 326.72L351.148 341.57L360 335.937Z" fill="#F1D560"/>
<path d="M183.934 393.805L171.639 388.684L166.721 400.974L178.524 407.119L183.934 393.805Z" fill="#FAEBFD"/>
<path d="M59.5083 272.949L50.1641 287.8L62.4591 297.018L70.328 281.143L59.5083 272.949Z" fill="#FAEBFD"/>
<path d="M46.2293 323.647L30.9834 316.99V313.405L46.2293 319.55V323.647Z" fill="#FCF2C8"/>
<path d="M169.18 325.183L156.393 327.232L153.442 325.183L167.213 320.062L169.18 325.183Z" fill="#DFF2F8"/>
<path d="M33.9346 172.578L22.1313 188.453V199.719L33.9346 181.795V172.578Z" fill="#D49FFD"/>
<path d="M28.5244 55.3068L11.8031 52.7463L7.86865 35.3349L22.1309 42.5043L28.5244 55.3068Z" fill="#E2F1F6"/>
<path d="M57.0494 7.16939L42.7871 2.5605L45.2461 0L57.0494 3.0726V7.16939Z" fill="#FCF2C8"/>
<path d="M166.721 97.811L153.934 101.396L152.951 99.3473L169.672 91.1537L166.721 97.811Z" fill="#E2F1F6"/>
<path d="M329.016 157.727L321.147 150.045L323.606 144.924L328.033 151.069L329.016 157.727Z" fill="#FAEBFD"/>
<path d="M292.131 42.5043L279.344 36.3591L285.246 20.484L299.016 27.1413L292.131 42.5043Z" fill="#FAEBFD"/>
<ellipse cx="268.525" cy="90.1296" rx="5.40984" ry="5.6331" fill="#FBF486"/>
<ellipse cx="326.065" cy="103.956" rx="4.91803" ry="5.121" fill="#E2F1F6"/>
<ellipse cx="346.722" cy="168.481" rx="3.93443" ry="4.0968" fill="#FBF486"/>
</svg>
