<svg width="211" height="102" viewBox="0 0 211 102" fill="none" xmlns="http://www.w3.org/2000/svg">
<path d="M209.339 14.0077C210.928 18.4809 209.688 23.8095 205.9 29.6807C202.117 35.5445 195.842 41.8672 187.536 48.2649C170.931 61.0568 146.305 74.0775 117.594 84.2776C88.8827 94.4777 61.5614 99.9121 40.6074 100.464C30.1275 100.74 21.2694 99.7937 14.6348 97.6309C7.99186 95.4654 3.66808 92.1134 2.07892 87.6402C0.489756 83.1671 1.72957 77.8384 5.51737 71.9672C9.30041 66.1035 15.576 59.7807 23.8811 53.383C40.4867 40.5911 65.1128 27.5704 93.8238 17.3703C122.535 7.17027 149.856 1.7358 170.81 1.18398C181.29 0.908001 190.148 1.85429 196.783 4.01703C203.426 6.1825 207.749 9.53458 209.339 14.0077Z" stroke="#535353"/>
</svg>
