<svg width="20" height="20" viewBox="0 0 20 20" fill="none" xmlns="http://www.w3.org/2000/svg">
<path d="M9.55808 7.10862C9.67525 7.22583 9.83425 7.29168 10 7.29168C10.1658 7.29168 10.3248 7.22583 10.4419 7.10862L11.2753 6.27529C11.454 6.09654 11.5075 5.82771 11.4108 5.59417C11.314 5.36062 11.0861 5.20834 10.8333 5.20834H9.16667C8.91383 5.20834 8.686 5.36062 8.58925 5.59417C8.4925 5.82771 8.546 6.09654 8.72475 6.27529L9.55808 7.10862Z" fill="black"/>
<path d="M9.55808 12.8914C9.67525 12.7742 9.83425 12.7083 10 12.7083C10.1658 12.7083 10.3248 12.7742 10.4419 12.8914L11.2753 13.7248C11.454 13.9035 11.5075 14.1723 11.4108 14.4058C11.314 14.6394 11.0861 14.7917 10.8333 14.7917H9.16667C8.91383 14.7917 8.686 14.6394 8.58925 14.4058C8.4925 14.1723 8.546 13.9035 8.72475 13.7248L9.55808 12.8914Z" fill="black"/>
<path fill-rule="evenodd" clip-rule="evenodd" d="M10.9575 9.99999L11.1136 9.86549C12.7598 8.44716 14.1285 6.73565 15.1502 4.81788C15.5511 4.06532 15.0533 3.14776 14.2038 3.07349L13.2259 2.98798C11.0794 2.80031 8.92058 2.80032 6.77407 2.98798L5.79612 3.07349C4.94667 3.14776 4.44892 4.06532 4.84983 4.81789C5.87152 6.73565 7.24021 8.44716 8.88642 9.86549L9.0425 9.99999L8.88642 10.1345C7.24021 11.5528 5.87152 13.2643 4.84983 15.1821C4.44892 15.9347 4.94667 16.8522 5.79612 16.9265L6.77407 17.012C8.92058 17.1997 11.0794 17.1997 13.2259 17.012L14.2038 16.9265C15.0533 16.8522 15.5511 15.9347 15.1502 15.1821C14.1285 13.2643 12.7598 11.5528 11.1136 10.1345L10.9575 9.99999ZM10.003 9.17191C10.0034 9.17174 10.0041 9.17149 10.0054 9.17032L10.2977 8.91849C11.8036 7.62103 13.0595 6.0594 14.0038 4.31076L13.1171 4.23323C11.043 4.0519 8.957 4.0519 6.88294 4.23323L5.99628 4.31076C6.94048 6.0594 8.19639 7.62103 9.70233 8.91849L9.99458 9.17032C9.99542 9.17107 9.996 9.17141 9.99642 9.17166C9.99667 9.17174 9.99625 9.17157 9.99642 9.17166C9.99708 9.17191 9.99867 9.17232 10 9.17232C10.0013 9.17232 10.0024 9.17207 10.003 9.17191ZM10.0054 10.8297C10.0041 10.8285 10.0034 10.8282 10.003 10.8281C10.0028 10.828 10.0023 10.8279 10.0018 10.8278C10.0013 10.8277 10.0007 10.8277 10 10.8277C9.99867 10.8277 9.99758 10.8279 9.997 10.8281C9.99658 10.8282 9.99592 10.8285 9.99458 10.8297L9.70233 11.0815C8.19639 12.3789 6.94048 13.9406 5.99628 15.6892L6.88294 15.7667C8.957 15.9481 11.043 15.9481 13.1171 15.7667L14.0038 15.6892C13.0595 13.9406 11.8036 12.3789 10.2977 11.0815L10.0054 10.8297Z" fill="black"/>
</svg>
