<svg width="30" height="30" viewBox="0 0 30 30" fill="none" xmlns="http://www.w3.org/2000/svg">
<path fill-rule="evenodd" clip-rule="evenodd" d="M11.1615 5.58785C9.57244 5.41025 7.92755 5.41025 6.33853 5.58785C5.95241 5.631 5.64791 5.93674 5.60449 6.30806C5.41473 7.93049 5.41473 9.5695 5.60449 11.1919C5.64791 11.5632 5.95241 11.869 6.33853 11.9121C7.92755 12.0897 9.57244 12.0897 11.1615 11.9121C11.5476 11.869 11.8521 11.5632 11.8955 11.1919C12.0853 9.5695 12.0853 7.93049 11.8955 6.30806C11.8521 5.93674 11.5476 5.631 11.1615 5.58785ZM6.13026 3.72445C7.8577 3.53139 9.64229 3.53139 11.3697 3.72445C12.6083 3.86287 13.6114 4.83786 13.7578 6.09025C13.9645 7.85739 13.9645 9.6426 13.7578 11.4097C13.6114 12.6621 12.6083 13.6371 11.3697 13.7755C9.64229 13.9686 7.8577 13.9686 6.13026 13.7755C4.89171 13.6371 3.88866 12.6621 3.74219 11.4097C3.5355 9.6426 3.5355 7.85739 3.74219 6.09025C3.88866 4.83786 4.89171 3.86287 6.13026 3.72445Z" fill="black"/>
<path fill-rule="evenodd" clip-rule="evenodd" d="M11.1615 18.0879C9.57244 17.9102 7.92755 17.9102 6.33853 18.0879C5.95241 18.131 5.64791 18.4367 5.60449 18.8081C5.41473 20.4305 5.41473 22.0695 5.60449 23.6919C5.64791 24.0632 5.95241 24.369 6.33853 24.4121C7.92755 24.5897 9.57244 24.5897 11.1615 24.4121C11.5476 24.369 11.8521 24.0632 11.8955 23.6919C12.0853 22.0695 12.0853 20.4305 11.8955 18.8081C11.8521 18.4367 11.5476 18.131 11.1615 18.0879ZM6.13026 16.2245C7.8577 16.0314 9.64229 16.0314 11.3697 16.2245C12.6083 16.3629 13.6114 17.3379 13.7578 18.5902C13.9645 20.3574 13.9645 22.1426 13.7578 23.9097C13.6114 25.1621 12.6083 26.1371 11.3697 26.2755C9.64229 26.4686 7.8577 26.4686 6.13026 26.2755C4.89171 26.1371 3.88866 25.1621 3.74219 23.9097C3.5355 22.1426 3.5355 20.3574 3.74219 18.5902C3.88866 17.3379 4.89171 16.3629 6.13026 16.2245Z" fill="black"/>
<path fill-rule="evenodd" clip-rule="evenodd" d="M23.6615 5.58785C22.0724 5.41025 20.4275 5.41025 18.8385 5.58785C18.4524 5.631 18.1479 5.93674 18.1045 6.30806C17.9148 7.93049 17.9148 9.5695 18.1045 11.1919C18.1479 11.5632 18.4524 11.869 18.8385 11.9121C20.4275 12.0897 22.0724 12.0897 23.6615 11.9121C24.0476 11.869 24.3521 11.5632 24.3955 11.1919C24.5853 9.5695 24.5853 7.93049 24.3955 6.30806C24.3521 5.93674 24.0476 5.631 23.6615 5.58785ZM18.6303 3.72445C20.3578 3.53139 22.1423 3.53139 23.8698 3.72445C25.1083 3.86287 26.1114 4.83786 26.2578 6.09025C26.4645 7.85739 26.4645 9.6426 26.2578 11.4097C26.1114 12.6621 25.1083 13.6371 23.8698 13.7755C22.1423 13.9686 20.3578 13.9686 18.6303 13.7755C17.3918 13.6371 16.3886 12.6621 16.2421 11.4097C16.0355 9.6426 16.0355 7.85739 16.2421 6.09025C16.3886 4.83786 17.3918 3.86287 18.6303 3.72445Z" fill="black"/>
<path fill-rule="evenodd" clip-rule="evenodd" d="M23.6615 18.0879C22.0724 17.9102 20.4275 17.9102 18.8385 18.0879C18.4524 18.131 18.1479 18.4367 18.1045 18.8081C17.9148 20.4305 17.9148 22.0695 18.1045 23.6919C18.1479 24.0632 18.4524 24.369 18.8385 24.4121C20.4275 24.5897 22.0724 24.5897 23.6615 24.4121C24.0476 24.369 24.3521 24.0632 24.3955 23.6919C24.5853 22.0695 24.5853 20.4305 24.3955 18.8081C24.3521 18.4367 24.0476 18.131 23.6615 18.0879ZM18.6303 16.2245C20.3578 16.0314 22.1423 16.0314 23.8698 16.2245C25.1083 16.3629 26.1114 17.3379 26.2578 18.5902C26.4645 20.3574 26.4645 22.1426 26.2578 23.9097C26.1114 25.1621 25.1083 26.1371 23.8698 26.2755C22.1423 26.4686 20.3578 26.4686 18.6303 26.2755C17.3918 26.1371 16.3886 25.1621 16.2421 23.9097C16.0355 22.1426 16.0355 20.3574 16.2421 18.5902C16.3886 17.3379 17.3918 16.3629 18.6303 16.2245Z" fill="black"/>
</svg>
