<svg width="30" height="30" viewBox="0 0 30 30" fill="none" xmlns="http://www.w3.org/2000/svg">
<path fill-rule="evenodd" clip-rule="evenodd" d="M16.25 3.75C16.25 3.05965 15.6904 2.5 15 2.5C14.3096 2.5 13.75 3.05965 13.75 3.75V4.6875H13.0532C10.2719 4.6875 7.96988 6.85001 7.79626 9.62593L7.52 14.0427C7.41468 15.7267 6.84931 17.3496 5.88549 18.7345C5.01464 19.9858 5.78991 21.714 7.30358 21.8956L11.5625 22.4067V23.75C11.5625 25.6485 13.1015 27.1875 15 27.1875C16.8985 27.1875 18.4375 25.6485 18.4375 23.75V22.4067L22.6964 21.8956C24.2101 21.714 24.9854 19.9858 24.1145 18.7345C23.1506 17.3496 22.5852 15.7267 22.48 14.0427L22.2037 9.62593C22.0301 6.85001 19.7281 4.6875 16.9467 4.6875H16.25V3.75ZM13.0532 6.5625C11.262 6.5625 9.77941 7.95521 9.6676 9.74298L9.39135 14.1597C9.2646 16.1862 8.58429 18.139 7.42448 19.8055C7.36154 19.896 7.41756 20.0209 7.52698 20.034L12.1991 20.5946C14.0596 20.8179 15.9404 20.8179 17.8009 20.5946L22.473 20.034C22.5824 20.0209 22.6385 19.896 22.5755 19.8055C21.4157 18.139 20.7354 16.1862 20.6086 14.1597L20.3324 9.74298C20.2205 7.95521 18.738 6.5625 16.9467 6.5625H13.0532ZM15 25.3125C14.137 25.3125 13.4375 24.613 13.4375 23.75V22.8125H16.5625V23.75C16.5625 24.613 15.863 25.3125 15 25.3125Z" fill="black"/>
</svg>
