<svg width="20" height="20" viewBox="0 0 20 20" fill="none" xmlns="http://www.w3.org/2000/svg">
<path fill-rule="evenodd" clip-rule="evenodd" d="M5.20834 4.58333C5.20834 3.08756 6.42089 1.875 7.91667 1.875C8.75434 1.875 9.50317 2.25531 10 2.85268C10.4968 2.25531 11.2457 1.875 12.0833 1.875C13.5791 1.875 14.7917 3.08756 14.7917 4.58333C14.7917 5.12027 14.6354 5.62071 14.3659 6.04167H15C16.2657 6.04167 17.2917 7.06768 17.2917 8.33333V10C17.2917 10.6702 16.8397 11.2347 16.2239 11.4054C16.344 12.9276 16.2744 14.4598 16.0163 15.9664C15.8621 16.8662 15.1313 17.5554 14.2242 17.6568L13.4621 17.7419C11.1612 17.9991 8.83884 17.9991 6.5379 17.7419L5.77584 17.6568C4.86866 17.5554 4.13794 16.8662 3.98377 15.9664C3.72558 14.4598 3.65604 12.9276 3.77609 11.4054C3.16034 11.2347 2.70834 10.6702 2.70834 10V8.33333C2.70834 7.06768 3.73435 6.04167 5 6.04167H5.63409C5.36459 5.62071 5.20834 5.12027 5.20834 4.58333ZM9.375 4.58333C9.375 3.77792 8.72209 3.125 7.91667 3.125C7.11125 3.125 6.45834 3.77792 6.45834 4.58333C6.45834 5.38875 7.11125 6.04167 7.91667 6.04167C8.72209 6.04167 9.375 5.38875 9.375 4.58333ZM12.0833 6.04167C12.8888 6.04167 13.5417 5.38875 13.5417 4.58333C13.5417 3.77792 12.8888 3.125 12.0833 3.125C11.2779 3.125 10.625 3.77792 10.625 4.58333C10.625 5.38875 11.2779 6.04167 12.0833 6.04167ZM3.95834 8.33333C3.95834 7.75803 4.4247 7.29167 5 7.29167H9.375V10.2083H4.16667C4.05161 10.2083 3.95834 10.1151 3.95834 10V8.33333ZM10.625 11.4583H14.9742C15.0911 12.8922 15.0274 14.3358 14.7842 15.7553C14.7241 16.1062 14.4391 16.375 14.0853 16.4145L13.3233 16.4997C12.4263 16.5999 11.526 16.6595 10.625 16.6783V11.4583ZM10.625 10.2083H15.8333C15.9484 10.2083 16.0417 10.1151 16.0417 10V8.33333C16.0417 7.75803 15.5753 7.29167 15 7.29167H10.625V10.2083ZM9.375 11.4583V16.6783C8.474 16.6595 7.57369 16.5999 6.67674 16.4997L5.91469 16.4145C5.5609 16.375 5.27594 16.1062 5.21581 15.7553C4.97257 14.3358 4.90895 12.8922 5.02586 11.4583H9.375Z" fill="black"/>
</svg>
