<svg width="20" height="20" viewBox="0 0 20 20" fill="none" xmlns="http://www.w3.org/2000/svg">
<path fill-rule="evenodd" clip-rule="evenodd" d="M6.86639 4.06327C6.81871 3.77908 6.58291 3.56431 6.29551 3.54333C6.00811 3.52235 5.74361 3.70057 5.65516 3.97483L3.91356 9.37499H1.66666C1.32149 9.37499 1.04166 9.65482 1.04166 9.99999C1.04166 10.3452 1.32149 10.625 1.66666 10.625H4.36868C4.63996 10.625 4.88025 10.45 4.96351 10.1918L6.05781 6.79881L7.59068 15.9367C7.63899 16.2247 7.88028 16.4409 8.17183 16.4573C8.46341 16.4738 8.7275 16.2862 8.80791 16.0055L10.8325 8.93882L11.8991 12.6717C11.9677 12.9122 12.1733 13.0887 12.4216 13.1201C12.6697 13.1515 12.9128 13.0318 13.0392 12.8159L14.3228 10.625H15.2946C15.5667 11.5869 16.451 12.2917 17.5 12.2917C18.7657 12.2917 19.7917 11.2657 19.7917 9.99999C19.7917 8.73432 18.7657 7.70834 17.5 7.70834C16.451 7.70834 15.5667 8.41315 15.2946 9.37499H13.9647C13.7427 9.37499 13.5375 9.49265 13.4254 9.68407L12.6995 10.9232L11.4342 6.49497C11.3577 6.22674 11.1125 6.04177 10.8336 6.04167C10.5546 6.04156 10.3093 6.22635 10.2325 6.49453L8.36666 13.007L6.86639 4.06327ZM16.4583 9.99999C16.4583 9.42474 16.9247 8.95832 17.5 8.95832C18.0753 8.95832 18.5417 9.42474 18.5417 9.99999C18.5417 10.5753 18.0753 11.0417 17.5 11.0417C16.9247 11.0417 16.4583 10.5753 16.4583 9.99999Z" fill="black"/>
</svg>
