<svg width="15" height="21" viewBox="0 0 15 21" fill="none" xmlns="http://www.w3.org/2000/svg">
<path fill-rule="evenodd" clip-rule="evenodd" d="M5.7567 0.258039C5.9384 0.0489493 6.2206 -0.0429507 6.4906 0.0190393C10.0994 0.847549 11.9235 4.80217 11.4945 8.3403C11.3278 9.7157 10.9158 10.7939 10.3092 11.6518C10.3055 11.6571 10.3017 11.6623 10.298 11.6675C10.4358 11.5998 10.5629 11.5267 10.6819 11.4495C11.2738 11.0653 11.7083 10.5583 12.2739 9.8981C12.3423 9.8183 12.4126 9.7363 12.4853 9.652C12.6487 9.4625 12.8959 9.3669 13.1442 9.3973C13.3926 9.4276 13.6095 9.5799 13.7225 9.8031C14.22 10.7863 14.5 11.8979 14.5 13.0726C14.5 17.0767 11.2541 20.3226 7.25 20.3226C3.24594 20.3226 0 17.0767 0 13.0726C0 10.5356 1.30371 8.3035 3.27431 7.00906L3.34187 6.94098C3.37658 6.90601 3.41464 6.87454 3.45552 6.84703C4.32138 6.2644 4.94312 5.78786 5.3617 5.22743C5.7571 4.69801 6 4.0522 6 3.07264C6 2.34736 5.8661 1.65512 5.6223 1.01809C5.5233 0.759359 5.5749 0.467129 5.7567 0.258039ZM7.4212 2.00081C7.4731 2.35079 7.5 2.70872 7.5 3.07264C7.5 4.34106 7.1723 5.30995 6.5635 6.12505C5.9917 6.89054 5.20028 7.47847 4.35466 8.0499L4.28236 8.12275C4.24362 8.16179 4.20071 8.19644 4.15439 8.2261C2.55648 9.2491 1.5 11.0377 1.5 13.0726C1.5 16.2483 4.07436 18.8226 7.25 18.8226C10.4256 18.8226 13 16.2483 13 13.0726C13 12.5528 12.9312 12.0497 12.8023 11.5717C12.4221 11.9834 12.0024 12.3807 11.4985 12.7077C10.5753 13.3069 9.4199 13.649 7.75 13.649C7.4077 13.649 7.1089 13.4173 7.0236 13.0858C6.9384 12.7544 7.0883 12.4072 7.3881 12.2421C8.0669 11.8681 8.6423 11.411 9.0845 10.7857C9.5257 10.1618 9.8637 9.3287 10.0055 8.15975C10.3123 5.629 9.2649 3.13107 7.4212 2.00081Z" fill="black"/>
</svg>
